<?xml version="1.0" encoding="UTF-8"?>
<svg width="3.835in" height="3.233in" version="1.1" viewBox="0 0 97.409002 82.118203" xmlns="http://www.w3.org/2000/svg" xmlns:cc="http://creativecommons.org/ns#" xmlns:dc="http://purl.org/dc/elements/1.1/" xmlns:rdf="http://www.w3.org/1999/02/22-rdf-syntax-ns#">
<metadata>
<rdf:RDF>
<cc:Work rdf:about="">
<dc:format>image/svg+xml</dc:format>
<dc:type rdf:resource="http://purl.org/dc/dcmitype/StillImage"/>
<dc:title/>
</cc:Work>
</rdf:RDF>
</metadata>
<g transform="translate(0 -214.88)">
<g transform="translate(0 214.45)">
<path d="m30.813 25.451 11.928 6.8866v13.773l-11.928-6.8866z" fill="none" stroke="#0b0b0b" stroke-width="1.0618"/>
<path d="m54.669 39.224 1.9e-5 -13.773 11.928-6.8866-1.1e-5 13.773z" fill="none" stroke="#0b0b0b" stroke-width="1.0618"/>
<path d="m36.777 1.3483 11.928 6.8866v13.773l-11.928-6.8866z" fill="none" stroke="#157e15" stroke-width="1.0618"/>
<path d="m12.533 57.679q0 3.3371-1.6685 5.2837-1.6685 1.937-4.6029 1.937-2.9247 0-4.5933-1.937-1.6685-1.9466-1.6685-5.3029 0-3.3467 1.6781-5.2645 1.6877-1.9274 4.6029-1.9274 2.9343 0 4.5933 1.937 1.6589 1.9274 1.6589 5.2741zm-11.469 0q0 3.011 1.3425 4.6604 1.3425 1.6398 3.8549 1.6398 2.5316 0 3.8645-1.6302 1.3425-1.6302 1.3425-4.67 0-3.0302-1.3425-4.6412-1.3329-1.6206-3.8453-1.6206-2.5028 0-3.8645 1.6302-1.3521 1.6302-1.3521 4.6316z"/>
<path d="m19.965 64.9q-2.4069 0-3.5097-1.8028h-0.06712l0.02877 0.8055q0.03836 0.7096 0.03836 1.5535v3.97h-0.94935v-15.141h0.8055l0.1822 1.4863h0.05754q1.074-1.6877 3.433-1.6877 2.1096 0 3.2124 1.3904 1.1124 1.3809 1.1124 4.0275 0 2.5699-1.1699 3.9891-1.1603 1.4096-3.1741 1.4096zm-0.01917-0.84386q1.6014 0 2.474-1.1891 0.88221-1.1891 0.88221-3.3275 0-4.5933-3.3179-4.5933-1.822 0-2.6754 1.0069-0.85345 0.99729-0.85345 3.2604v0.30686q0 2.4453 0.81509 3.4905 0.82468 1.0452 2.6754 1.0452z"/>
<path d="m31.414 64.9q-2.2727 0-3.548-1.4-1.2658-1.4-1.2658-3.922 0-2.4932 1.2274-3.9891 1.2274-1.5055 3.3083-1.5055 1.8411 0 2.9056 1.285 1.0644 1.285 1.0644 3.4905v0.76714h-7.5084q0.01918 2.148 0.99728 3.2795 0.9877 1.1315 2.8192 1.1315 0.8918 0 1.5631-0.12466 0.68084-0.12466 1.7165-0.537v0.86303q-0.88221 0.38357-1.6302 0.51782-0.74796 0.14384-1.6494 0.14384zm-0.27809-9.9728q-1.5055 0-2.4165 0.99729-0.91098 0.9877-1.0644 2.8576h6.444q0-1.8124-0.78632-2.8288-0.78632-1.0261-2.1768-1.0261z"/>
<path d="m45.252 64.708v-6.7604q0-1.5726-0.66166-2.2822-0.66166-0.7192-2.0521-0.7192-1.8699 0-2.7425 0.94934-0.86304 0.93975-0.86304 3.059v5.7536h-0.94934v-10.424h0.8055l0.1822 1.4288h0.05754q1.0165-1.6302 3.6152-1.6302 3.548 0 3.548 3.8069v6.818z"/>
<path transform="matrix(.23014 0 0 .23014 35.527 -14.008)" d="m136.84 342.03-22.708-56.25h-0.33334q0.33334 5.1667 0.33334 10.583v45.667h-4.0833v-60.917h6.5833l21.583 53.583h0.25l21.583-53.583h6.4167v60.917h-4.2917v-46.167q0-4.8333 0.5-10h-0.33334l-22.792 56.167z" fill="#7e1717"/>
<path transform="matrix(.23014 0 0 .23014 35.527 -14.008)" d="m197.72 314.45 17.833-33.333h4.5833l-20.292 37.375v23.542h-4.375v-23.208l-20.375-37.708h4.875z" fill="#7e1717"/>
<path transform="matrix(.23014 0 0 .23014 35.527 -14.008)" d="m232.97 315.49v26.542h-4.25v-60.917h14.5q11.333 0 16.75 4.2083 5.4167 4.1667 5.4167 12.583 0 6.125-3.25 10.333-3.2083 4.2083-9.7917 6.0417l16.542 27.75h-5.0833l-15.708-26.542zm0-3.6667h11.625q7.7083 0 11.958-3.4167 4.25-3.4583 4.25-10.167 0-6.9583-4.1667-10.125-4.1667-3.1667-13.583-3.1667h-10.083z" fill="#7e1717"/>
<g transform="matrix(.17352 0 0 .17352 -10.218 23.982)" aria-label="WiFi">
<path d="m115.83 282.56h2.4747l12.373 53.248 14.763-48.299v-4.9493h2.048l15.019 53.248 12.373-53.248h2.3893l-12.715 54.955h-3.84l-13.568-48.64-14.592 48.64h-3.9253z"/>
<path d="m191.35 281.71h2.9867v3.7547h-2.9867zm0.59733 17.579h-6.5707v-2.2187h8.96v40.448h-2.3893z"/>
<path d="m208.04 282.56h33.28v2.1333h-30.891v24.235h27.819v2.1333h-27.819v26.453h-2.3893z"/>
<path d="m254.51 281.71h2.9867v3.7547h-2.9867zm0.59734 17.579h-6.5707v-2.2187h8.96v40.448h-2.3893z"/>
</g>
<g transform="matrix(.17352 0 0 .17352 -11.114 15.158)" aria-label="Motors">
<path d="m333.97 332.56h3.4987l21.163 43.264 21.077-43.264h3.4987v54.955h-2.3893v-52.309l-20.821 42.667h-2.7307l-20.907-42.667v52.309h-2.3893z"/>
<path d="m413.53 388.37q-9.6427 0-14.08-5.2053-4.352-5.2907-4.352-15.872 0-10.496 4.4373-15.787 4.4373-5.2907 13.995-5.2907 9.5573 0 13.995 5.2907 4.4373 5.2907 4.4373 15.787 0 10.581-4.4373 15.872-4.352 5.2053-13.995 5.2053zm0-2.1333q8.704 0 12.373-4.608 3.7547-4.608 3.7547-14.336t-3.7547-14.336-12.373-4.608q-8.6187 0-12.373 4.608t-3.7547 14.336 3.6693 14.336q3.7547 4.608 12.459 4.608z"/>
<path d="m454.37 388.37q-4.7787 0-7.5093-2.816-2.7307-2.816-2.7307-7.7653v-28.501h-6.5707v-2.2187h6.5707v-11.264l2.3893-0.85333v12.117h12.203l-0.17067 2.2187h-12.032v28.501q0 4.1813 2.048 6.3147 2.1333 2.1333 6.5707 2.1333 2.048 0 4.7787-0.93867v2.2187q-2.7307 0.85333-5.5467 0.85333z"/>
<path d="m484.69 388.37q-9.6427 0-14.08-5.2053-4.352-5.2907-4.352-15.872 0-10.496 4.4373-15.787 4.4373-5.2907 13.995-5.2907t13.995 5.2907q4.4373 5.2907 4.4373 15.787 0 10.581-4.4373 15.872-4.352 5.2053-13.995 5.2053zm0-2.1333q8.704 0 12.373-4.608 3.7547-4.608 3.7547-14.336t-3.7547-14.336q-3.7547-4.608-12.373-4.608t-12.373 4.608q-3.7547 4.608-3.7547 14.336t3.6693 14.336q3.7547 4.608 12.459 4.608z"/>
<path d="m515.14 347.07h1.9627l0.42667 6.0587q3.2427-2.304 7.2533-4.096 4.096-1.8773 8.1067-2.816v2.2187q-3.84 0.93867-8.3627 2.9867-4.4373 2.048-6.9973 4.0107v32.085h-2.3893z"/>
<path d="m554.23 388.37q-6.5707 0-11.605-1.536v-2.2187q5.4613 1.6213 11.349 1.6213 6.4853 0 9.3013-1.9627 2.9013-2.048 2.9013-6.656 0-2.9013-1.1093-4.4373-1.024-1.6213-2.9867-2.56-1.9627-0.93867-6.4-2.4747l-1.792-0.59733q-0.42667-0.17067-1.8773-0.59733-3.7547-1.28-5.8027-2.304t-3.4133-2.9867q-1.3653-1.9627-1.3653-5.2907 0-5.12 3.2427-7.5947 3.328-2.56 10.581-2.56 5.9733 0 10.155 1.28v2.2187q-4.864-1.3653-9.8133-1.3653-6.656 0-9.3013 1.8773-2.56 1.8773-2.56 6.0587 0 2.7307 1.024 4.2667t3.1573 2.56q2.1333 0.93866 6.656 2.3893 5.2907 1.7067 8.0213 2.9867 2.816 1.28 4.352 3.4133t1.536 5.7173q0 5.7173-3.6693 8.2773-3.6693 2.4747-10.581 2.4747z"/>
</g>
</g>
</g>
</svg>
