<?xml version="1.0" encoding="UTF-8" standalone="no"?>
<!-- Created with Inkscape (http://www.inkscape.org/) -->

<svg
   xmlns:dc="http://purl.org/dc/elements/1.1/"
   xmlns:cc="http://creativecommons.org/ns#"
   xmlns:rdf="http://www.w3.org/1999/02/22-rdf-syntax-ns#"
   xmlns:svg="http://www.w3.org/2000/svg"
   xmlns="http://www.w3.org/2000/svg"
   xmlns:sodipodi="http://sodipodi.sourceforge.net/DTD/sodipodi-0.dtd"
   xmlns:inkscape="http://www.inkscape.org/namespaces/inkscape"
   width="3.835in"
   height="3.233in"
   viewBox="0 0 97.409002 82.118203"
   version="1.1"
   id="svg4665"
   inkscape:version="0.92.0 r15299"
   sodipodi:docname="logoWithTest.svg">
  <defs
     id="defs4659" />
  <sodipodi:namedview
     id="base"
     pagecolor="#ffffff"
     bordercolor="#666666"
     borderopacity="1.0"
     inkscape:pageopacity="0.0"
     inkscape:pageshadow="2"
     inkscape:zoom="1.979899"
     inkscape:cx="91.843051"
     inkscape:cy="131.38519"
     inkscape:document-units="mm"
     inkscape:current-layer="layer1"
     showgrid="false"
     units="in"
     inkscape:window-width="1920"
     inkscape:window-height="1013"
     inkscape:window-x="-9"
     inkscape:window-y="-9"
     inkscape:window-maximized="1" />
  <metadata
     id="metadata4662">
    <rdf:RDF>
      <cc:Work
         rdf:about="">
        <dc:format>image/svg+xml</dc:format>
        <dc:type
           rdf:resource="http://purl.org/dc/dcmitype/StillImage" />
        <dc:title></dc:title>
      </cc:Work>
    </rdf:RDF>
  </metadata>
  <g
     inkscape:label="Layer 1"
     inkscape:groupmode="layer"
     id="layer1"
     transform="translate(0,-214.88188)">
    <g
       aria-label="MYR"
       transform="matrix(0.23014263,0,0,0.23014263,35.527342,-14.008444)"
       style="font-style:normal;font-variant:normal;font-weight:100;font-stretch:normal;font-size:85.33333588px;line-height:25px;font-family:kanit;-inkscape-font-specification:'kanit Thin';letter-spacing:0px;word-spacing:0px;fill:#7e1717;fill-opacity:1;stroke:none"
       id="flowRoot5078" />
    <g
       id="g5299"
       transform="translate(0,214.45311)">
      <path
         inkscape:connector-curvature="0"
         id="path4581-6"
         d="M 30.81292,25.451275 42.7408,32.337826 V 46.110955 L 30.81292,39.224396 Z"
         style="fill:none;stroke:#0b0b0b;stroke-width:1.06178892;stroke-linecap:butt;stroke-linejoin:miter;stroke-miterlimit:4;stroke-dasharray:none;stroke-opacity:1" />
      <path
         inkscape:connector-curvature="0"
         id="path4581-07-6"
         d="m 54.668671,39.224396 1.9e-5,-13.773121 11.927872,-6.88656 -1.1e-5,13.77309 z"
         style="fill:none;stroke:#0b0b0b;stroke-width:1.06178892;stroke-linecap:butt;stroke-linejoin:miter;stroke-miterlimit:4;stroke-dasharray:none;stroke-opacity:1" />
      <path
         inkscape:connector-curvature="0"
         id="path4581-0-8"
         d="M 36.776861,1.3483055 48.70473,8.2348653 V 22.007985 l -11.927869,-6.88655 z"
         style="fill:none;fill-opacity:1;stroke:#157e15;stroke-width:1.06178892;stroke-linecap:butt;stroke-linejoin:miter;stroke-miterlimit:4;stroke-dasharray:none;stroke-opacity:1" />
      <path
         id="path4619"
         style="font-style:normal;font-variant:normal;font-weight:300;font-stretch:normal;font-size:85.33333588px;line-height:24.96000099px;font-family:'Open Sans';-inkscape-font-specification:'Open Sans Light';letter-spacing:0px;word-spacing:0px;fill:#000000;fill-opacity:1;stroke:none;stroke-width:0.23014264;stroke-opacity:1"
         d="m 12.533183,57.679229 q 0,3.337068 -1.668534,5.283692 -1.6685335,1.937033 -4.6028528,1.937033 -2.9247281,0 -4.5932621,-1.937033 Q 0,61.016297 0,57.660052 0,54.313393 1.6781218,52.395539 3.365836,50.468095 6.2809742,50.468095 q 2.9343193,0 4.5932648,1.937033 1.658944,1.927444 1.658944,5.274101 z m -11.4687734,0 q 0,3.011032 1.342498,4.660389 1.3424978,1.639766 3.8548886,1.639766 2.531569,0 3.8644798,-1.630178 1.342498,-1.630177 1.342498,-4.669977 0,-3.030212 -1.342498,-4.64121 -1.3329108,-1.620586 -3.8453018,-1.620586 -2.5028009,0 -3.8644766,1.630177 -1.352088,1.630175 -1.352088,4.631619 z"
         inkscape:connector-curvature="0" />
      <path
         id="path4621"
         style="font-style:normal;font-variant:normal;font-weight:300;font-stretch:normal;font-size:85.33333588px;line-height:24.96000099px;font-family:'Open Sans';-inkscape-font-specification:'Open Sans Light';letter-spacing:0px;word-spacing:0px;fill:#000000;fill-opacity:1;stroke:none;stroke-width:0.23014264;stroke-opacity:1"
         d="m 19.964873,64.899954 q -2.406907,0 -3.509675,-1.802784 h -0.06712 l 0.02877,0.8055 q 0.03836,0.709605 0.03836,1.553462 v 3.969962 H 15.50586 v -15.14147 h 0.805499 l 0.182197,1.48634 h 0.05754 q 1.073999,-1.687714 3.432961,-1.687714 2.109639,0 3.212407,1.390446 1.112355,1.380855 1.112355,4.027496 0,2.569924 -1.169891,3.989139 -1.160303,1.409623 -3.174051,1.409623 z m -0.01917,-0.843857 q 1.601409,0 2.474034,-1.189069 0.882212,-1.189069 0.882212,-3.32748 0,-4.593261 -3.317888,-4.593261 -1.821963,0 -2.675408,1.006871 -0.853447,0.997286 -0.853447,3.260355 v 0.306858 q 0,2.445264 0.815089,3.490498 0.824677,1.045228 2.675408,1.045228 z"
         inkscape:connector-curvature="0" />
      <path
         id="path4623"
         style="font-style:normal;font-variant:normal;font-weight:300;font-stretch:normal;font-size:85.33333588px;line-height:24.96000099px;font-family:'Open Sans';-inkscape-font-specification:'Open Sans Light';letter-spacing:0px;word-spacing:0px;fill:#000000;fill-opacity:1;stroke:none;stroke-width:0.23014264;stroke-opacity:1"
         d="m 31.414469,64.899954 q -2.272657,0 -3.548031,-1.400032 -1.265785,-1.400038 -1.265785,-3.922017 0,-2.493211 1.227428,-3.989136 1.227426,-1.505519 3.3083,-1.505519 1.84114,0 2.905551,1.284962 1.064408,1.284965 1.064408,3.490497 v 0.767144 h -7.508401 q 0.01918,2.147999 0.997283,3.279531 0.987695,1.131536 2.819247,1.131536 0.891802,0 1.563052,-0.124661 0.680839,-0.124661 1.716482,-0.536998 v 0.863033 q -0.882214,0.383572 -1.630177,0.517822 -0.747964,0.143838 -1.649357,0.143838 z m -0.278088,-9.972847 q -1.505516,0 -2.416498,0.997286 -0.910981,0.987695 -1.064411,2.857603 h 6.443996 q 0,-1.812372 -0.786323,-2.828838 -0.786318,-1.026051 -2.176764,-1.026051 z"
         inkscape:connector-curvature="0" />
      <path
         id="path4625"
         style="font-style:normal;font-variant:normal;font-weight:300;font-stretch:normal;font-size:85.33333588px;line-height:24.96000099px;font-family:'Open Sans';-inkscape-font-specification:'Open Sans Light';letter-spacing:0px;word-spacing:0px;fill:#000000;fill-opacity:1;stroke:none;stroke-width:0.23014264;stroke-opacity:1"
         d="M 45.251796,64.708171 V 57.94773 q 0,-1.572643 -0.661659,-2.282248 -0.66166,-0.719195 -2.052106,-0.719195 -1.869908,0 -2.742533,0.949338 -0.863037,0.939747 -0.863037,3.05898 v 5.753566 H 37.983123 V 54.284624 h 0.8055 l 0.182198,1.428803 h 0.05754 q 1.016463,-1.630177 3.615155,-1.630177 3.548034,0 3.548034,3.806944 v 6.817977 z"
         inkscape:connector-curvature="0" />
      <path
         id="path4612"
         style="font-style:normal;font-variant:normal;font-weight:300;font-stretch:normal;font-size:85.33333588px;line-height:25px;font-family:'Open Sans';-inkscape-font-specification:'Open Sans Light';letter-spacing:0px;word-spacing:0px;fill:#7e1717;fill-opacity:1;stroke:none"
         d="m 136.8444,342.034 -22.70833,-56.25 h -0.33334 q 0.33334,5.16666 0.33334,10.58333 V 342.034 h -4.08334 v -60.91667 h 6.58334 l 21.58333,53.58334 h 0.25 l 21.58334,-53.58334 h 6.41666 V 342.034 h -4.29166 v -46.16667 q 0,-4.83333 0.5,-10 H 162.3444 L 139.55274,342.034 Z"
         inkscape:connector-curvature="0"
         transform="matrix(0.23014263,0,0,0.23014263,35.527342,-14.008444)" />
      <path
         id="path4614"
         style="font-style:normal;font-variant:normal;font-weight:300;font-stretch:normal;font-size:85.33333588px;line-height:25px;font-family:'Open Sans';-inkscape-font-specification:'Open Sans Light';letter-spacing:0px;word-spacing:0px;fill:#7e1717;fill-opacity:1;stroke:none"
         d="m 197.71941,314.45067 17.83333,-33.33334 h 4.58333 l -20.29166,37.375 V 342.034 h -4.375 v -23.20833 l -20.375,-37.70834 h 4.875 z"
         inkscape:connector-curvature="0"
         transform="matrix(0.23014263,0,0,0.23014263,35.527342,-14.008444)" />
      <path
         id="path4616"
         style="font-style:normal;font-variant:normal;font-weight:300;font-stretch:normal;font-size:85.33333588px;line-height:25px;font-family:'Open Sans';-inkscape-font-specification:'Open Sans Light';letter-spacing:0px;word-spacing:0px;fill:#7e1717;fill-opacity:1;stroke:none"
         d="M 232.96941,315.49233 V 342.034 h -4.25 v -60.91667 h 14.5 q 11.33333,0 16.75,4.20833 5.41666,4.16667 5.41666,12.58334 0,6.125 -3.25,10.33333 -3.20833,4.20834 -9.79166,6.04167 l 16.54166,27.75 h -5.08333 l -15.70833,-26.54167 z m 0,-3.66666 h 11.625 q 7.70833,0 11.95833,-3.41667 4.25,-3.45834 4.25,-10.16667 0,-6.95833 -4.16667,-10.125 -4.16666,-3.16667 -13.58333,-3.16667 h -10.08333 z"
         inkscape:connector-curvature="0"
         transform="matrix(0.23014263,0,0,0.23014263,35.527342,-14.008444)" />
      <g
         id="flowRoot5086"
         style="font-style:normal;font-weight:normal;font-size:40px;line-height:25px;font-family:sans-serif;letter-spacing:0px;word-spacing:0px;fill:#000000;fill-opacity:1;stroke:none"
         transform="matrix(0.1735184,0,0,0.1735184,-10.217787,23.981685)"
         aria-label="WiFi">
        <path
           id="path4603"
           style="font-style:normal;font-variant:normal;font-weight:100;font-stretch:normal;font-size:85.33333588px;font-family:kanit;-inkscape-font-specification:'kanit Thin'"
           d="m 115.83484,282.56421 h 2.47467 l 12.37333,53.248 14.76267,-48.29866 v -4.94934 h 2.048 l 15.01867,53.248 12.37333,-53.248 h 2.38934 l -12.71467,54.95467 h -3.84 l -13.568,-48.64 -14.592,48.64 h -3.92534 z"
           inkscape:connector-curvature="0" />
        <path
           id="path4605"
           style="font-style:normal;font-variant:normal;font-weight:100;font-stretch:normal;font-size:85.33333588px;font-family:kanit;-inkscape-font-specification:'kanit Thin'"
           d="m 191.34818,281.71088 h 2.98667 v 3.75467 h -2.98667 z m 0.59733,17.57867 h -6.57066 v -2.21867 h 8.96 v 40.448 h -2.38934 z"
           inkscape:connector-curvature="0" />
        <path
           id="path4607"
           style="font-style:normal;font-variant:normal;font-weight:100;font-stretch:normal;font-size:85.33333588px;font-family:kanit;-inkscape-font-specification:'kanit Thin'"
           d="m 208.04151,282.56421 h 33.28 v 2.13334 h -30.89067 v 24.23466 h 27.81867 v 2.13334 h -27.81867 v 26.45333 h -2.38933 z"
           inkscape:connector-curvature="0" />
        <path
           id="path4609"
           style="font-style:normal;font-variant:normal;font-weight:100;font-stretch:normal;font-size:85.33333588px;font-family:kanit;-inkscape-font-specification:'kanit Thin'"
           d="m 254.51484,281.71088 h 2.98667 v 3.75467 h -2.98667 z m 0.59734,17.57867 h -6.57067 v -2.21867 h 8.96 v 40.448 h -2.38933 z"
           inkscape:connector-curvature="0" />
      </g>
      <g
         id="flowRoot5094"
         style="font-style:normal;font-weight:normal;font-size:40px;line-height:25px;font-family:sans-serif;letter-spacing:0px;word-spacing:0px;fill:#000000;fill-opacity:1;stroke:none"
         transform="matrix(0.1735184,0,0,0.1735184,-11.113926,15.157696)"
         aria-label="Motors">
        <path
           id="path4590"
           style="font-style:normal;font-variant:normal;font-weight:100;font-stretch:normal;font-size:85.33333588px;font-family:kanit;-inkscape-font-specification:'kanit Thin'"
           d="m 333.96924,332.56421 h 3.49867 l 21.16267,43.264 21.07733,-43.264 h 3.49867 v 54.95467 h -2.38933 v -52.30933 l -20.82134,42.66666 h -2.73066 l -20.90667,-42.66666 v 52.30933 h -2.38934 z"
           inkscape:connector-curvature="0" />
        <path
           id="path4592"
           style="font-style:normal;font-variant:normal;font-weight:100;font-stretch:normal;font-size:85.33333588px;font-family:kanit;-inkscape-font-specification:'kanit Thin'"
           d="m 413.52791,388.37221 q -9.64266,0 -14.08,-5.20533 -4.352,-5.29067 -4.352,-15.872 0,-10.496 4.43734,-15.78667 4.43733,-5.29066 13.99466,-5.29066 9.55734,0 13.99467,5.29066 4.43734,5.29067 4.43734,15.78667 0,10.58133 -4.43734,15.872 -4.352,5.20533 -13.99467,5.20533 z m 0,-2.13333 q 8.704,0 12.37334,-4.608 3.75467,-4.608 3.75467,-14.336 0,-9.728 -3.75467,-14.336 -3.75467,-4.608 -12.37334,-4.608 -8.61866,0 -12.37333,4.608 -3.75467,4.608 -3.75467,14.336 0,9.728 3.66934,14.336 3.75466,4.608 12.45866,4.608 z"
           inkscape:connector-curvature="0" />
        <path
           id="path4594"
           style="font-style:normal;font-variant:normal;font-weight:100;font-stretch:normal;font-size:85.33333588px;font-family:kanit;-inkscape-font-specification:'kanit Thin'"
           d="m 454.36658,388.37221 q -4.77867,0 -7.50933,-2.816 -2.73067,-2.816 -2.73067,-7.76533 v -28.50133 h -6.57067 v -2.21867 h 6.57067 v -11.264 l 2.38933,-0.85333 v 12.11733 h 12.20267 l -0.17067,2.21867 h -12.032 v 28.50133 q 0,4.18133 2.048,6.31467 2.13334,2.13333 6.57067,2.13333 2.048,0 4.77867,-0.93867 v 2.21867 q -2.73067,0.85333 -5.54667,0.85333 z"
           inkscape:connector-curvature="0" />
        <path
           id="path4596"
           style="font-style:normal;font-variant:normal;font-weight:100;font-stretch:normal;font-size:85.33333588px;font-family:kanit;-inkscape-font-specification:'kanit Thin'"
           d="m 484.69458,388.37221 q -9.64267,0 -14.08,-5.20533 -4.352,-5.29067 -4.352,-15.872 0,-10.496 4.43733,-15.78667 4.43734,-5.29066 13.99467,-5.29066 9.55733,0 13.99467,5.29066 4.43733,5.29067 4.43733,15.78667 0,10.58133 -4.43733,15.872 -4.352,5.20533 -13.99467,5.20533 z m 0,-2.13333 q 8.704,0 12.37333,-4.608 3.75467,-4.608 3.75467,-14.336 0,-9.728 -3.75467,-14.336 -3.75466,-4.608 -12.37333,-4.608 -8.61867,0 -12.37333,4.608 -3.75467,4.608 -3.75467,14.336 0,9.728 3.66933,14.336 3.75467,4.608 12.45867,4.608 z"
           inkscape:connector-curvature="0" />
        <path
           id="path4598"
           style="font-style:normal;font-variant:normal;font-weight:100;font-stretch:normal;font-size:85.33333588px;font-family:kanit;-inkscape-font-specification:'kanit Thin'"
           d="m 515.13592,347.07088 h 1.96266 l 0.42667,6.05867 q 3.24267,-2.304 7.25333,-4.096 4.096,-1.87734 8.10667,-2.816 v 2.21866 q -3.84,0.93867 -8.36267,2.98667 -4.43733,2.048 -6.99733,4.01067 v 32.08533 h -2.38933 z"
           inkscape:connector-curvature="0" />
        <path
           id="path4600"
           style="font-style:normal;font-variant:normal;font-weight:100;font-stretch:normal;font-size:85.33333588px;font-family:kanit;-inkscape-font-specification:'kanit Thin'"
           d="m 554.22925,388.37221 q -6.57067,0 -11.60533,-1.536 v -2.21866 q 5.46133,1.62133 11.34933,1.62133 6.48533,0 9.30133,-1.96267 2.90134,-2.048 2.90134,-6.656 0,-2.90133 -1.10934,-4.43733 -1.024,-1.62133 -2.98666,-2.56 -1.96267,-0.93867 -6.4,-2.47467 l -1.792,-0.59733 q -0.42667,-0.17067 -1.87734,-0.59733 -3.75466,-1.28 -5.80266,-2.304 -2.048,-1.024 -3.41334,-2.98667 -1.36533,-1.96267 -1.36533,-5.29067 0,-5.12 3.24267,-7.59466 3.328,-2.56 10.58133,-2.56 5.97333,0 10.15467,1.28 v 2.21866 q -4.864,-1.36533 -9.81334,-1.36533 -6.656,0 -9.30133,1.87733 -2.56,1.87734 -2.56,6.05867 0,2.73067 1.024,4.26667 1.024,1.536 3.15733,2.56 2.13334,0.93866 6.656,2.38933 5.29067,1.70667 8.02134,2.98667 2.816,1.28 4.352,3.41333 1.536,2.13333 1.536,5.71733 0,5.71734 -3.66934,8.27734 -3.66933,2.47466 -10.58133,2.47466 z"
           inkscape:connector-curvature="0" />
      </g>
    </g>
  </g>
</svg>
